<?xml version="1.0" standalone="no"?><svg xmlns="http://www.w3.org/2000/svg" viewBox="0 0 1440 320"><path fill="#ffffff" fill-opacity="1" d="M0,0L26.7,48C53.3,96,107,192,160,240C213.3,288,267,288,320,293.3C373.3,299,427,309,480,277.3C533.3,245,587,171,640,160C693.3,149,747,203,800,202.7C853.3,203,907,149,960,117.3C1013.3,85,1067,75,1120,64C1173.3,53,1227,43,1280,74.7C1333.3,107,1387,181,1413,218.7L1440,256L1440,320L1413.3,320C1386.7,320,1333,320,1280,320C1226.7,320,1173,320,1120,320C1066.7,320,1013,320,960,320C906.7,320,853,320,800,320C746.7,320,693,320,640,320C586.7,320,533,320,480,320C426.7,320,373,320,320,320C266.7,320,213,320,160,320C106.7,320,53,320,27,320L0,320Z"></path></svg>