<?xml version="1.0" standalone="no"?><svg xmlns="http://www.w3.org/2000/svg" viewBox="0 0 1440 320"><path fill="#ffffff" fill-opacity="1" d="M0,288L30,282.7C60,277,120,267,180,266.7C240,267,300,277,360,277.3C420,277,480,267,540,250.7C600,235,660,213,720,176C780,139,840,85,900,80C960,75,1020,117,1080,117.3C1140,117,1200,75,1260,90.7C1320,107,1380,181,1410,218.7L1440,256L1440,320L1410,320C1380,320,1320,320,1260,320C1200,320,1140,320,1080,320C1020,320,960,320,900,320C840,320,780,320,720,320C660,320,600,320,540,320C480,320,420,320,360,320C300,320,240,320,180,320C120,320,60,320,30,320L0,320Z"></path></svg>