<?xml version="1.0" standalone="no"?><svg xmlns="http://www.w3.org/2000/svg" viewBox="0 0 1440 320"><path fill="#ffffff" fill-opacity="1" d="M0,0L30,37.3C60,75,120,149,180,154.7C240,160,300,96,360,85.3C420,75,480,117,540,160C600,203,660,245,720,266.7C780,288,840,288,900,282.7C960,277,1020,267,1080,229.3C1140,192,1200,128,1260,101.3C1320,75,1380,85,1410,90.7L1440,96L1440,320L1410,320C1380,320,1320,320,1260,320C1200,320,1140,320,1080,320C1020,320,960,320,900,320C840,320,780,320,720,320C660,320,600,320,540,320C480,320,420,320,360,320C300,320,240,320,180,320C120,320,60,320,30,320L0,320Z"></path></svg>