<?xml version="1.0" standalone="no"?><svg xmlns="http://www.w3.org/2000/svg" viewBox="0 0 1440 320"><path fill="#f4f7fc" fill-opacity="1" d="M0,96L26.7,128C53.3,160,107,224,160,261.3C213.3,299,267,309,320,288C373.3,267,427,213,480,213.3C533.3,213,587,267,640,250.7C693.3,235,747,149,800,133.3C853.3,117,907,171,960,165.3C1013.3,160,1067,96,1120,112C1173.3,128,1227,224,1280,229.3C1333.3,235,1387,149,1413,106.7L1440,64L1440,320L1413.3,320C1386.7,320,1333,320,1280,320C1226.7,320,1173,320,1120,320C1066.7,320,1013,320,960,320C906.7,320,853,320,800,320C746.7,320,693,320,640,320C586.7,320,533,320,480,320C426.7,320,373,320,320,320C266.7,320,213,320,160,320C106.7,320,53,320,27,320L0,320Z"></path></svg>