<?xml version="1.0" standalone="no"?><svg xmlns="http://www.w3.org/2000/svg" viewBox="0 0 1440 320"><path fill="#ffffff" fill-opacity="1" d="M0,96L26.7,128C53.3,160,107,224,160,256C213.3,288,267,288,320,293.3C373.3,299,427,309,480,298.7C533.3,288,587,256,640,250.7C693.3,245,747,267,800,277.3C853.3,288,907,288,960,256C1013.3,224,1067,160,1120,138.7C1173.3,117,1227,139,1280,154.7C1333.3,171,1387,181,1413,186.7L1440,192L1440,320L1413.3,320C1386.7,320,1333,320,1280,320C1226.7,320,1173,320,1120,320C1066.7,320,1013,320,960,320C906.7,320,853,320,800,320C746.7,320,693,320,640,320C586.7,320,533,320,480,320C426.7,320,373,320,320,320C266.7,320,213,320,160,320C106.7,320,53,320,27,320L0,320Z"></path></svg>