<?xml version="1.0" standalone="no"?><svg xmlns="http://www.w3.org/2000/svg" viewBox="0 0 1440 320"><path fill="#ffffff" fill-opacity="1" d="M0,32L30,32C60,32,120,32,180,58.7C240,85,300,139,360,181.3C420,224,480,256,540,245.3C600,235,660,181,720,149.3C780,117,840,107,900,101.3C960,96,1020,96,1080,128C1140,160,1200,224,1260,218.7C1320,213,1380,139,1410,101.3L1440,64L1440,320L1410,320C1380,320,1320,320,1260,320C1200,320,1140,320,1080,320C1020,320,960,320,900,320C840,320,780,320,720,320C660,320,600,320,540,320C480,320,420,320,360,320C300,320,240,320,180,320C120,320,60,320,30,320L0,320Z"></path></svg>