<?xml version="1.0" standalone="no"?><svg xmlns="http://www.w3.org/2000/svg" viewBox="0 0 1440 320"><path fill="#ffffff" fill-opacity="1" d="M0,288L30,293.3C60,299,120,309,180,309.3C240,309,300,299,360,256C420,213,480,139,540,133.3C600,128,660,192,720,213.3C780,235,840,213,900,202.7C960,192,1020,192,1080,165.3C1140,139,1200,85,1260,85.3C1320,85,1380,139,1410,165.3L1440,192L1440,320L1410,320C1380,320,1320,320,1260,320C1200,320,1140,320,1080,320C1020,320,960,320,900,320C840,320,780,320,720,320C660,320,600,320,540,320C480,320,420,320,360,320C300,320,240,320,180,320C120,320,60,320,30,320L0,320Z"></path></svg>